# xmcd
#
# Track frame offsets:
#	150
#	13396
#	28292
#	42586
#	57193
#	69673
#	82026
#	94329
#	108715
#	121715
#	133026
#	147507
#	160825
#	174463
#	189555
#	203070
#	217606
#	230856
#	242816
#	256309
#	271255
#	286058
#	298919
#	313029
#
# Disc length: 4362 seconds
#
# Revision: 1
# Processed by: cddbd v1.5.2PL0 Copyright (c) Steve Scherf et al.
# Submitted via: audiograbber 1.83.01
#
DISCID=75110818
DTITLE=Blind Willie MacTell - Traveling blues
DYEAR=1999
DGENRE=Blues
TTITLE0=Warm it up to me
TTITLE1=Low rider's blues
TTITLE2=Atlanta strut
TTITLE3=Drive away blues
TTITLE4=God don't like it
TTITLE5=Hillbilly Willie's blues
TTITLE6=Three women blues
TTITLE7=Talkin' to myself
TTITLE8=East St. Louis blues
TTITLE9=Statesboro blues
TTITLE10=I got religion I'm so glad
TTITLE11=Mama t'ain't long fo' day
TTITLE12=Scary day blues
TTITLE13=Ticket agent blues
TTITLE14=Dying gambler blues
TTITLE15=Traveling blues
TTITLE16=Southern can mama
TTITLE17=Loving talking blues
TTITLE18=We got to meet death one day
TTITLE19=Cooling board blues
TTITLE20=Savannah blues
TTITLE21=Bell street blues
TTITLE22=Stomp down rider
TTITLE23=Love changing blues
EXTD=
EXTT0=
EXTT1=
EXTT2=
EXTT3=
EXTT4=
EXTT5=
EXTT6=
EXTT7=
EXTT8=
EXTT9=
EXTT10=
EXTT11=
EXTT12=
EXTT13=
EXTT14=
EXTT15=
EXTT16=
EXTT17=
EXTT18=
EXTT19=
EXTT20=
EXTT21=
EXTT22=
EXTT23=
PLAYORDER=
